<svg viewBox="0 0 500 110" xmlns="http://www.w3.org/2000/svg"><g fill="#d30a56"><path d="m12.405 76.82.764-1.019c.594-.679 1.189-.934 1.867-.34.85.764 7.132 6.538 15.707 6.538 7.726 0 14.263-5.179 14.263-11.377 0-7.556-6.2-10.953-16.471-14.433-9.847-3.481-16.385-6.962-16.385-16.726 0-6.367 5.094-15.027 18.339-15.027a27.876 27.876 0 0 1 14.6 4.33 1.217 1.217 0 0 1 .34 1.783 7.7 7.7 0 0 0 -.68 1.1 1.222 1.222 0 0 1 -1.867.425c-.255-.17-5.943-3.992-12.48-3.992-10.443 0-14.348 6.454-14.348 11.292 0 7.217 5.518 10.359 14.093 13.16 11.634 3.995 19.019 8.066 19.019 17.918 0 8.49-8.744 15.112-18.508 15.112a27.649 27.649 0 0 1 -18-6.962c-.508-.424-.932-.849-.253-1.782z"/><path d="m62.071 26.389a1.122 1.122 0 0 1 1.1-1.1h18.257a19.145 19.145 0 1 1 .085 38.289h-15.452v20.034c0 .594-.509 1.1-1.359 1.1h-1.528a1.123 1.123 0 0 1 -1.1-1.1zm19.187 33.28a15.491 15.491 0 0 0 15.367-15.451c0-8.32-7.047-14.942-15.452-14.942h-15.112v30.393z"/><path d="m179.768 28.936h-16.217c-.849 0-1.1-.51-1.1-1.273v-1.274a1.069 1.069 0 0 1 1.1-1.1h36.508a1.069 1.069 0 0 1 1.1 1.1v1.444a1.07 1.07 0 0 1 -1.1 1.1h-16.3v54.679c0 .594-.51 1.1-1.358 1.1h-1.529a1.123 1.123 0 0 1 -1.1-1.1z"/><path d="m236.226 24.436a29.087 29.087 0 0 1 20.63 7.9 1.08 1.08 0 0 1 .085 1.528l-1.359 1.436c-.509.51-.933.425-1.443-.085a26.65 26.65 0 1 0 -17.913 46.526c7.3 0 12.819-2.887 17.913-7.132a1.065 1.065 0 0 1 1.358-.169l1.444 1.442a.978.978 0 0 1 0 1.444 29.337 29.337 0 0 1 -20.715 8.235 30.564 30.564 0 1 1 0-61.128z"/><path d="m296.758 24.436a30.564 30.564 0 1 1 -30.564 30.649 30.527 30.527 0 0 1 30.564-30.649zm0 57.393a26.829 26.829 0 1 0 -26.828-26.744 26.777 26.777 0 0 0 26.828 26.744z"/><path d="m332.329 26.389c-.339-.68-.085-1.1.68-1.1h2.291a.99.99 0 0 1 .935.593l22.923 52.718h.17l23.177-52.723a.99.99 0 0 1 .935-.593h2.207c.764 0 1.1.508.764 1.188l-26.064 58.328a1.1 1.1 0 0 1 -1.019.764h-.428a1.117 1.117 0 0 1 -.934-.764z"/><path d="m396.088 26.389a1.123 1.123 0 0 1 1.1-1.1h34.045a1.123 1.123 0 0 1 1.1 1.1v1.444a1.124 1.124 0 0 1 -1.1 1.1h-31.07v23.436h26.913a1.123 1.123 0 0 1 1.1 1.1v1.444a1.125 1.125 0 0 1 -1.1 1.1h-26.913v25.137h31.074a1.124 1.124 0 0 1 1.1 1.1v1.359a1.124 1.124 0 0 1 -1.1 1.1h-34.045a1.123 1.123 0 0 1 -1.1-1.1z"/><path d="m446.857 26.389a1.069 1.069 0 0 1 1.1-1.1h21.055c10.358 0 18.933 7.81 18.933 18.168 0 8.575-5.943 15.452-14.008 17.744l12.395 21.989c.424.68.254 1.528-.595 1.528h-2.631a1.2 1.2 0 0 1 -1.189-.763l-12.307-22.247c-1.1.084-2.038.084-3.142.084h-15.621v21.82c0 .594-.51 1.1-1.358 1.1h-1.529a1.122 1.122 0 0 1 -1.1-1.1zm21.988 31.837a14.837 14.837 0 0 0 15.027-14.772c0-8.066-6.877-14.263-15.111-14.263h-17.829v29.035z"/><path d="m136.506 26.864a28.5 28.5 0 1 0 28.5 28.5 28.5 28.5 0 0 0 -28.5-28.5zm0 50.193a21.718 21.718 0 0 1 -21.693-21.693h1.932a19.784 19.784 0 0 0 19.761 19.761zm0-8.256a13.453 13.453 0 0 1 -13.438-13.437h.967a12.485 12.485 0 0 0 12.471 12.471zm-.432-9.573a4.3 4.3 0 1 1 4.3-4.3 4.3 4.3 0 0 1 -4.3 4.3zm12.9-3.864a12.486 12.486 0 0 0 -12.472-12.472v-.966a13.453 13.453 0 0 1 13.438 13.438zm7.289 0a19.782 19.782 0 0 0 -19.757-19.764v-1.93a21.719 21.719 0 0 1 21.694 21.694z"/></g></svg>