<svg viewBox="0 0 219.273 30" xmlns="http://www.w3.org/2000/svg"><g fill="#d30a56"><path d="m.8 25 .351-.467c.272-.311.544-.428.855-.156a11.312 11.312 0 0 0 7.2 3c3.538 0 6.533-2.372 6.533-5.211 0-3.461-2.839-5.017-7.545-6.611-4.511-1.6-7.5-3.189-7.5-7.662-.006-2.926 2.327-6.893 8.394-6.893a12.773 12.773 0 0 1 6.689 1.983.558.558 0 0 1 .155.817 3.578 3.578 0 0 0 -.311.506.559.559 0 0 1 -.855.194 11.4 11.4 0 0 0 -5.717-1.828c-4.783 0-6.572 2.956-6.572 5.172 0 3.306 2.528 4.745 6.455 6.028 5.328 1.828 8.711 3.7 8.711 8.206 0 3.889-4.005 6.922-8.477 6.922a12.668 12.668 0 0 1 -8.245-3.189c-.233-.194-.427-.389-.121-.811z"/><path d="m23.554 1.9a.515.515 0 0 1 .506-.506h8.361a8.77 8.77 0 1 1 .039 17.539h-7.078v9.178c0 .272-.233.5-.622.5h-.7a.515.515 0 0 1 -.506-.5zm8.789 15.244a7.1 7.1 0 0 0 7.039-7.078 6.981 6.981 0 0 0 -7.082-6.849h-6.918v13.922z"/><path d="m77.466 3.061h-7.428c-.389 0-.506-.233-.506-.583v-.578a.491.491 0 0 1 .506-.506h16.723a.49.49 0 0 1 .505.506v.661a.49.49 0 0 1 -.505.5h-7.467v25.045c0 .272-.234.5-.622.5h-.7a.514.514 0 0 1 -.506-.5z"/><path d="m103.327 1a13.323 13.323 0 0 1 9.45 3.617.5.5 0 0 1 .039.7l-.623.661c-.233.233-.427.194-.661-.039a12.139 12.139 0 0 0 -20.339 9.1 12.141 12.141 0 0 0 12.134 12.211 12.325 12.325 0 0 0 8.2-3.267.487.487 0 0 1 .622-.077l.662.661a.448.448 0 0 1 0 .661 13.441 13.441 0 0 1 -9.484 3.772 14 14 0 1 1 0-28z"/><path d="m131.054 1a14 14 0 1 1 -14 14.039 13.983 13.983 0 0 1 14-14.039zm0 26.289a12.289 12.289 0 1 0 -12.289-12.25 12.265 12.265 0 0 0 12.289 12.25z"/><path d="m147.348 1.9c-.155-.312-.039-.506.311-.506h1.05a.453.453 0 0 1 .428.272l10.5 24.15h.078l10.616-24.15a.453.453 0 0 1 .428-.272h1.011c.35 0 .506.233.35.545l-11.939 26.711a.5.5 0 0 1 -.466.35h-.195a.51.51 0 0 1 -.427-.35z"/><path d="m176.553 1.9a.514.514 0 0 1 .5-.506h15.6a.514.514 0 0 1 .5.506v.661a.514.514 0 0 1 -.5.5h-14.233v10.739h12.327a.515.515 0 0 1 .506.505v.661a.516.516 0 0 1 -.506.506h-12.327v11.506h14.233a.514.514 0 0 1 .5.506v.622a.514.514 0 0 1 -.5.5h-15.595a.514.514 0 0 1 -.5-.5z"/><path d="m199.808 1.9a.49.49 0 0 1 .5-.506h9.644a8.436 8.436 0 0 1 8.673 8.322 8.511 8.511 0 0 1 -6.417 8.128l5.678 10.072c.194.312.116.7-.272.7h-1.206a.549.549 0 0 1 -.544-.35l-5.634-10.194c-.506.039-.934.039-1.439.039h-7.156v10c0 .272-.233.5-.622.5h-.7a.514.514 0 0 1 -.5-.5zm10.072 14.578a6.8 6.8 0 0 0 6.883-6.767 6.712 6.712 0 0 0 -6.922-6.533h-8.167v13.3z"/><path d="m57.65 2.112a13.055 13.055 0 1 0 13.05 13.055 13.055 13.055 0 0 0 -13.05-13.055zm0 22.991a9.948 9.948 0 0 1 -9.937-9.936h.887a9.062 9.062 0 0 0 9.052 9.051zm0-3.781a6.162 6.162 0 0 1 -6.15-6.155h.442a5.719 5.719 0 0 0 5.713 5.712zm-.2-4.385a1.968 1.968 0 1 1 1.968-1.968 1.968 1.968 0 0 1 -1.966 1.968zm5.911-1.77a5.72 5.72 0 0 0 -5.711-5.713v-.443a6.163 6.163 0 0 1 6.155 6.156zm3.339 0a9.062 9.062 0 0 0 -9.05-9.052v-.885a9.949 9.949 0 0 1 9.937 9.937z"/></g></svg>