<svg viewBox="0 0 30 30" xmlns="http://www.w3.org/2000/svg"><path d="m15 1.945a13.055 13.055 0 1 0 13.055 13.055 13.055 13.055 0 0 0 -13.055-13.055zm0 22.992a9.949 9.949 0 0 1 -9.937-9.937h.885a9.063 9.063 0 0 0 9.052 9.052zm0-3.782a6.162 6.162 0 0 1 -6.155-6.155h.442a5.72 5.72 0 0 0 5.713 5.713zm-.2-4.385a1.968 1.968 0 1 1 1.97-1.97 1.968 1.968 0 0 1 -1.97 1.97zm5.913-1.77a5.72 5.72 0 0 0 -5.713-5.713v-.442a6.162 6.162 0 0 1 6.155 6.155zm3.339 0a9.063 9.063 0 0 0 -9.052-9.052v-.885a9.949 9.949 0 0 1 9.937 9.937z" fill="#d30a56"/></svg>